
<svg width="800" height="400" viewBox="0 0 800 400" xmlns="http://www.w3.org/2000/svg">
  <defs>
    <!-- Modern gradient background -->
    <linearGradient id="logoBackground" x1="0%" y1="0%" x2="100%" y2="100%">
      <stop offset="0%" style="stop-color:#1e1b4b;stop-opacity:1" />
      <stop offset="50%" style="stop-color:#312e81;stop-opacity:1" />
      <stop offset="100%" style="stop-color:#1e1b4b;stop-opacity:1" />
    </linearGradient>
    
    <!-- Accent gradient -->
    <linearGradient id="accentGradient" x1="0%" y1="0%" x2="100%" y2="0%">
      <stop offset="0%" style="stop-color:#a855f7;stop-opacity:1" />
      <stop offset="100%" style="stop-color:#ec4899;stop-opacity:1" />
    </linearGradient>
    
    <!-- Glow effect -->
    <filter id="logoGlow" x="-50%" y="-50%" width="200%" height="200%">
      <feGaussianBlur stdDeviation="2" result="coloredBlur"/>
      <feMerge> 
        <feMergeNode in="coloredBlur"/>
        <feMergeNode in="SourceGraphic"/>
      </feMerge>
    </filter>
  </defs>
  
  <!-- Background -->
  <rect width="800" height="400" fill="url(#logoBackground)" rx="20"/>
  
  <!-- Left side: Five iconic mask symbols -->
  <g transform="translate(50, 100)">
    <!-- Villain mask -->
    <circle cx="40" cy="40" r="35" fill="none" stroke="url(#accentGradient)" stroke-width="3" opacity="0.8"/>
    <path d="M 25 35 Q 40 25 55 35 Q 40 45 25 35" fill="url(#accentGradient)" opacity="0.9"/>
    <text x="40" y="80" text-anchor="middle" fill="#ffffff" font-family="Arial, sans-serif" font-size="10" font-weight="bold">VILLAIN</text>
    
    <!-- Hero mask -->
    <circle cx="120" cy="40" r="35" fill="none" stroke="url(#accentGradient)" stroke-width="3" opacity="0.8"/>
    <path d="M 105 35 Q 120 25 135 35 Q 120 45 105 35" fill="url(#accentGradient)" opacity="0.9"/>
    <text x="120" y="80" text-anchor="middle" fill="#ffffff" font-family="Arial, sans-serif" font-size="10" font-weight="bold">HERO</text>
    
    <!-- Temptress mask -->
    <circle cx="200" cy="40" r="35" fill="none" stroke="url(#accentGradient)" stroke-width="3" opacity="0.8"/>
    <path d="M 185 35 Q 200 25 215 35 Q 200 45 185 35" fill="url(#accentGradient)" opacity="0.9"/>
    <text x="200" y="80" text-anchor="middle" fill="#ffffff" font-family="Arial, sans-serif" font-size="10" font-weight="bold">TEMPTRESS</text>
    
    <!-- Rebel mask -->
    <circle cx="280" cy="40" r="35" fill="none" stroke="url(#accentGradient)" stroke-width="3" opacity="0.8"/>
    <path d="M 265 35 Q 280 25 295 35 Q 280 45 265 35" fill="url(#accentGradient)" opacity="0.9"/>
    <text x="280" y="80" text-anchor="middle" fill="#ffffff" font-family="Arial, sans-serif" font-size="10" font-weight="bold">REBEL</text>
    
    <!-- Spy mask -->
    <circle cx="360" cy="40" r="35" fill="none" stroke="url(#accentGradient)" stroke-width="3" opacity="0.8"/>
    <path d="M 345 35 Q 360 25 375 35 Q 360 45 345 35" fill="url(#accentGradient)" opacity="0.9"/>
    <text x="360" y="80" text-anchor="middle" fill="#ffffff" font-family="Arial, sans-serif" font-size="10" font-weight="bold">SPY</text>
  </g>
  
  <!-- Right side: Main title and branding -->
  <g transform="translate(450, 80)">
    <!-- Main title -->
    <text x="0" y="0" text-anchor="start" fill="#ffffff" font-family="Arial, sans-serif" font-size="32" font-weight="bold" filter="url(#logoGlow)">
      MASKED DESIRES
    </text>
    <text x="0" y="45" text-anchor="start" fill="url(#accentGradient)" font-family="Arial, sans-serif" font-size="28" font-weight="bold" filter="url(#logoGlow)">
      MISSION UNCUT
    </text>
    
    <!-- Subtitle -->
    <text x="0" y="80" text-anchor="start" fill="#cbd5e1" font-family="Arial, sans-serif" font-size="16" font-weight="normal">
      A CINEMATIC EXPERIENCE
    </text>
    
    <!-- Decorative line -->
    <line x1="0" y1="100" x2="200" y2="100" stroke="url(#accentGradient)" stroke-width="2" opacity="0.7"/>
    
    <!-- Tagline -->
    <text x="0" y="130" text-anchor="start" fill="#94a3b8" font-family="Arial, sans-serif" font-size="14" font-weight="normal" font-style="italic">
      "Where masks reveal truth"
    </text>
  </g>
  
  <!-- Bottom accent bar -->
  <rect x="0" y="350" width="800" height="50" fill="url(#accentGradient)" opacity="0.3" rx="0 0 20 20"/>
  
  <!-- Bottom text -->
  <text x="400" y="380" text-anchor="middle" fill="#ffffff" font-family="Arial, sans-serif" font-size="12" font-weight="bold">
    PREMIUM STREAMING NETWORK
  </text>
</svg>
  