
<svg width="200" height="200" viewBox="0 0 200 200" xmlns="http://www.w3.org/2000/svg">
  <defs>
    <linearGradient id="iconBackground" x1="0%" y1="0%" x2="100%" y2="100%">
      <stop offset="0%" style="stop-color:#1e1b4b;stop-opacity:1" />
      <stop offset="100%" style="stop-color:#312e81;stop-opacity:1" />
    </linearGradient>
    
    <linearGradient id="iconAccent" x1="0%" y1="0%" x2="100%" y2="0%">
      <stop offset="0%" style="stop-color:#a855f7;stop-opacity:1" />
      <stop offset="100%" style="stop-color:#ec4899;stop-opacity:1" />
    </linearGradient>
  </defs>
  
  <!-- Background circle -->
  <circle cx="100" cy="100" r="90" fill="url(#iconBackground)" stroke="url(#iconAccent)" stroke-width="3"/>
  
  <!-- Five small mask icons arranged in a circle -->
  <!-- Top -->
  <circle cx="100" cy="30" r="12" fill="none" stroke="url(#iconAccent)" stroke-width="2"/>
  <path d="M 95 25 Q 100 20 105 25 Q 100 30 95 25" fill="url(#iconAccent)"/>
  
  <!-- Top-right -->
  <circle cx="150" cy="70" r="12" fill="none" stroke="url(#iconAccent)" stroke-width="2"/>
  <path d="M 145 65 Q 150 60 155 65 Q 150 70 145 65" fill="url(#iconAccent)"/>
  
  <!-- Bottom-right -->
  <circle cx="150" cy="130" r="12" fill="none" stroke="url(#iconAccent)" stroke-width="2"/>
  <path d="M 145 125 Q 150 120 155 125 Q 150 130 145 125" fill="url(#iconAccent)"/>
  
  <!-- Bottom -->
  <circle cx="100" cy="170" r="12" fill="none" stroke="url(#iconAccent)" stroke-width="2"/>
  <path d="M 95 165 Q 100 160 105 165 Q 100 170 95 165" fill="url(#iconAccent)"/>
  
  <!-- Top-left -->
  <circle cx="50" cy="130" r="12" fill="none" stroke="url(#iconAccent)" stroke-width="2"/>
  <path d="M 45 125 Q 50 120 55 125 Q 50 130 45 125" fill="url(#iconAccent)"/>
  
  <!-- Center: MD initials -->
  <text x="100" y="110" text-anchor="middle" fill="#ffffff" font-family="Arial, sans-serif" font-size="24" font-weight="bold">
    MD
  </text>
</svg>
  