
<svg width="300" height="300" viewBox="0 0 300 300" xmlns="http://www.w3.org/2000/svg">
  <defs>
    <!-- Modern dark gradient -->
    <linearGradient id="modernBackground" x1="0%" y1="0%" x2="100%" y2="100%">
      <stop offset="0%" style="stop-color:#111827;stop-opacity:1" />
      <stop offset="100%" style="stop-color:#1f2937;stop-opacity:1" />
    </linearGradient>
    
    <!-- Elegant gold -->
    <linearGradient id="elegantGold" x1="0%" y1="0%" x2="100%" y2="0%">
      <stop offset="0%" style="stop-color:#ec4899;stop-opacity:1" />
      <stop offset="50%" style="stop-color:#be185d;stop-opacity:1" />
      <stop offset="100%" style="stop-color:#9d174d;stop-opacity:1" />
    </linearGradient>
  </defs>
  
  <!-- Background circle -->
  <circle cx="150" cy="150" r="140" fill="url(#modernBackground)" stroke="url(#elegantGold)" stroke-width="3"/>
  
  <!-- Woman's face -->
  <ellipse cx="150" cy="140" rx="60" ry="75" fill="#8B4513" opacity="0.9"/>
  
  <!-- Sexy mask -->
  <path d="M 110 125 Q 150 105 190 125 Q 150 145 110 125" fill="url(#elegantGold)" opacity="0.9"/>
  <path d="M 110 125 Q 150 105 190 125 Q 150 145 110 125" fill="none" stroke="#fbbf24" stroke-width="2"/>
  
  <!-- Mysterious eyes -->
  <ellipse cx="135" cy="135" rx="6" ry="9" fill="#8B4513"/>
  <ellipse cx="165" cy="135" rx="6" ry="9" fill="#8B4513"/>
  <ellipse cx="135" cy="135" rx="3" ry="4" fill="#fbbf24" opacity="0.9"/>
  <ellipse cx="165" cy="135" rx="3" ry="4" fill="#fbbf24" opacity="0.9"/>
  
  <!-- Sensual lips -->
  <path d="M 140 155 Q 150 160 160 155 Q 150 158 140 155" fill="#dc2626" opacity="0.8"/>
  
  <!-- Flowing hair -->
  <path d="M 90 110 Q 110 90 130 110 Q 150 90 170 110 Q 190 90 210 110" 
        fill="none" stroke="#374151" stroke-width="6" opacity="0.8"/>
  
  <!-- Neck -->
  <ellipse cx="150" cy="200" rx="45" ry="30" fill="#8B4513" opacity="0.8"/>
  
  <!-- Decorative accent -->
  <circle cx="150" cy="240" r="12" fill="url(#elegantGold)" opacity="0.7"/>
  
  <!-- MD initials -->
  <text x="150" y="270" text-anchor="middle" fill="url(#elegantGold)" font-family="Arial, sans-serif" font-size="20" font-weight="bold">
    MD
  </text>
</svg>
  