
<svg width="400" height="400" viewBox="0 0 400 400" xmlns="http://www.w3.org/2000/svg">
  <defs>
    <!-- Dark gradient background -->
    <linearGradient id="darkBackground" x1="0%" y1="0%" x2="100%" y2="100%">
      <stop offset="0%" style="stop-color:#0f0f23;stop-opacity:1" />
      <stop offset="100%" style="stop-color:#1a0f2e;stop-opacity:1" />
    </linearGradient>
    
    <!-- Gold accent -->
    <linearGradient id="goldAccent" x1="0%" y1="0%" x2="100%" y2="0%">
      <stop offset="0%" style="stop-color:#ec4899;stop-opacity:1" />
      <stop offset="100%" style="stop-color:#be185d;stop-opacity:1" />
    </linearGradient>
    
    <!-- Glow effect -->
    <filter id="glow" x="-50%" y="-50%" width="200%" height="200%">
      <feGaussianBlur stdDeviation="3" result="coloredBlur"/>
      <feMerge> 
        <feMergeNode in="coloredBlur"/>
        <feMergeNode in="SourceGraphic"/>
      </feMerge>
    </filter>
  </defs>
  
  <!-- Background -->
  <rect width="400" height="400" fill="url(#darkBackground)" rx="20"/>
  
  <!-- Woman's face silhouette -->
  <ellipse cx="200" cy="180" rx="80" ry="100" fill="#8B4513" opacity="0.9"/>
  
  <!-- Elegant mask -->
  <path d="M 140 160 Q 200 140 260 160 Q 200 180 140 160" fill="url(#goldAccent)" filter="url(#glow)"/>
  <path d="M 140 160 Q 200 140 260 160 Q 200 180 140 160" fill="none" stroke="#fbbf24" stroke-width="2"/>
  
  <!-- Mask details -->
  <path d="M 160 150 Q 200 130 240 150" fill="none" stroke="#fbbf24" stroke-width="1" opacity="0.7"/>
  <path d="M 170 145 Q 200 125 230 145" fill="none" stroke="#fbbf24" stroke-width="1" opacity="0.5"/>
  
  <!-- Eyes (mysterious) -->
  <ellipse cx="175" cy="170" rx="8" ry="12" fill="#8B4513"/>
  <ellipse cx="225" cy="170" rx="8" ry="12" fill="#8B4513"/>
  <ellipse cx="175" cy="170" rx="4" ry="6" fill="#fbbf24" opacity="0.8"/>
  <ellipse cx="225" cy="170" rx="4" ry="6" fill="#fbbf24" opacity="0.8"/>
  
  <!-- Lips (sexy) -->
  <path d="M 185 200 Q 200 210 215 200 Q 200 205 185 200" fill="#dc2626" opacity="0.8"/>
  
  <!-- Hair (flowing and mysterious) -->
  <path d="M 120 120 Q 140 100 160 120 Q 180 100 200 120 Q 220 100 240 120 Q 260 100 280 120" 
        fill="none" stroke="#1f2937" stroke-width="8" opacity="0.8"/>
  <path d="M 130 110 Q 150 90 170 110 Q 190 90 210 110 Q 230 90 250 110 Q 270 90 290 110" 
        fill="none" stroke="#374151" stroke-width="6" opacity="0.6"/>
  
  <!-- Neck and shoulders -->
  <ellipse cx="200" cy="280" rx="60" ry="40" fill="#8B4513" opacity="0.8"/>
  
  <!-- Decorative elements -->
  <circle cx="200" cy="320" r="15" fill="url(#goldAccent)" opacity="0.6"/>
  <circle cx="200" cy="340" r="10" fill="url(#goldAccent)" opacity="0.4"/>
  
  <!-- Title -->
  <text x="200" y="380" text-anchor="middle" fill="url(#goldAccent)" font-family="Arial, sans-serif" font-size="18" font-weight="bold" filter="url(#glow)">
    MASKED DESIRES
  </text>
</svg>
  